HIERARCHY
ROOT root
{
	OFFSET 0.000000 0.000000 0.000000
	CHANNELS 6 Xposition Yposition Zposition Zrotation Yrotation Xrotation
	JOINT lhip
	{
		OFFSET 0.058581 -0.082280 -0.017664
		CHANNELS 3 Zrotation Yrotation Xrotation
		JOINT lknee
		{
			OFFSET 0.043451 -0.386469 0.008037
			CHANNELS 3 Zrotation Yrotation Xrotation
			JOINT lankle
			{
				OFFSET -0.014790 -0.426874 -0.037428
				CHANNELS 3 Zrotation Yrotation Xrotation
				JOINT ltoe
				{
					OFFSET 0.041054 -0.060286 0.122042
					CHANNELS 3 Zrotation Yrotation Xrotation
					End Site
					{
						OFFSET 0.000000 0.000000 0.000000
					}
				}
			}
		}
	}
	JOINT rhip
	{
		OFFSET -0.060310 -0.090513 -0.013543
		CHANNELS 3 Zrotation Yrotation Xrotation
		JOINT rknee
		{
			OFFSET -0.043257 -0.383688 -0.004843
			CHANNELS 3 Zrotation Yrotation Xrotation
			JOINT rankle
			{
				OFFSET 0.019056 -0.420046 -0.034562
				CHANNELS 3 Zrotation Yrotation Xrotation
				JOINT rtoe
				{
					OFFSET -0.034840 -0.062106 0.130323
					CHANNELS 3 Zrotation Yrotation Xrotation
					End Site
					{
						OFFSET 0.000000 0.000000 0.000000
					}
				}
			}
		}
	}
	JOINT lowerback
	{
		OFFSET 0.004439 0.124404 -0.038385
		CHANNELS 3 Zrotation Yrotation Xrotation
		JOINT upperback
		{
			OFFSET 0.004488 0.137956 0.026820
			CHANNELS 3 Zrotation Yrotation Xrotation
			JOINT chest
			{
				OFFSET -0.002265 0.056032 0.002855
				CHANNELS 3 Zrotation Yrotation Xrotation
				JOINT lowerneck
				{
					OFFSET -0.013390 0.211636 -0.033468
					CHANNELS 3 Zrotation Yrotation Xrotation
					JOINT upperneck
					{
						OFFSET 0.010113 0.088937 0.050410
						CHANNELS 3 Zrotation Yrotation Xrotation
						End Site
						{
							OFFSET 0.000000 0.000000 0.000000
						}
					}
				}
				JOINT lclavicle
				{
					OFFSET 0.071702 0.114000 -0.018898
					CHANNELS 3 Zrotation Yrotation Xrotation
					JOINT lshoulder
					{
						OFFSET 0.122921 0.045205 -0.019046
						CHANNELS 3 Zrotation Yrotation Xrotation
						JOINT lelbow
						{
							OFFSET 0.255332 -0.015649 -0.022946
							CHANNELS 3 Zrotation Yrotation Xrotation
							JOINT lwrist
							{
								OFFSET 0.265709 0.012698 -0.007375
								CHANNELS 3 Zrotation Yrotation Xrotation
								End Site
								{
									OFFSET 0.000000 0.000000 0.000000
								}
							}
						}
					}
				}
				JOINT rclavicle
				{
					OFFSET -0.082954 0.112472 -0.023707
					CHANNELS 3 Zrotation Yrotation Xrotation
					JOINT rshoulder
					{
						OFFSET -0.113228 0.046853 -0.008472
						CHANNELS 3 Zrotation Yrotation Xrotation
						JOINT relbow
						{
							OFFSET -0.260127 -0.014369 -0.031269
							CHANNELS 3 Zrotation Yrotation Xrotation
							JOINT rwrist
							{
								OFFSET -0.269108 0.006794 -0.006027
								CHANNELS 3 Zrotation Yrotation Xrotation
								End Site
								{
									OFFSET 0.000000 0.000000 0.000000
								}
							}
						}
					}
				}
			}
		}
	}
}
MOTION
Frames: 5
Frame Time: 0.033333
-0.506202 0.688349 1.007038 77.812310 -17.211341 65.226301 27.524084 6.691728 -69.371116 0.123313 19.388849 122.828680 -10.689009 -5.551687 2.823429 0.000000 -0.000000 0.000000 -17.394801 -6.010273 16.466347 -0.844154 9.963681 22.424197 -1.920860 2.599624 -21.423963 0.000000 -0.000000 0.000000 -2.741625 15.788723 27.470349 -2.497516 -4.723299 7.488979 -3.509981 2.170405 4.126962 -4.399820 9.703112 27.812538 2.706417 7.011334 20.931802 -21.175656 5.237201 4.814097 -50.447903 8.151102 -4.917303 10.836831 -42.385350 8.390618 -11.615487 -10.155413 -6.721749 17.774269 2.130010 7.489256 46.331566 5.542045 -0.005791 -12.335321 54.090090 3.555713 9.671216 3.894862 -8.938415 
-0.510490 0.685549 1.006976 77.992136 -15.989699 66.500663 24.940283 4.477488 -62.621106 -0.931363 17.725482 116.635124 -9.849917 -3.790440 3.137150 0.000000 -0.000000 0.000000 -15.593588 -6.236996 15.515422 -0.785617 8.886702 21.630279 -1.867002 2.493538 -20.548371 0.000000 -0.000000 0.000000 -2.290589 14.790689 26.748047 -2.335658 -4.119107 7.453665 -3.358820 2.184800 4.405156 -3.923927 9.484275 27.818591 2.624643 6.785298 21.283742 -20.907146 5.499460 3.920581 -50.149639 7.201891 -4.190201 10.180166 -43.528461 9.113931 -13.269833 -10.034903 -5.434571 17.831982 1.657689 7.175826 47.209004 4.971264 0.380200 -12.801983 53.132376 2.870829 9.909538 4.078268 -8.313673 
-0.513016 0.683381 1.006388 78.094175 -14.971651 67.855485 22.265451 2.299694 -54.764868 -1.601054 16.369820 108.786509 -9.544076 -2.063495 4.107981 0.000000 -0.000000 0.000000 -14.198395 -6.376252 14.520227 -0.645991 7.690588 20.900222 -2.058999 2.638703 -20.026088 0.000000 -0.000000 0.000000 -1.869481 13.779116 25.456639 -2.351688 -3.700199 8.425039 -3.364333 2.097397 3.974227 -3.618716 9.330094 28.059903 2.643538 6.572347 20.647830 -20.919376 5.743780 3.959191 -49.808131 6.640441 -3.885611 9.831606 -45.381412 8.444647 -14.893712 -9.711684 -4.082238 18.037353 1.437161 7.385188 48.247827 4.089793 0.583131 -13.572167 52.374636 1.513073 10.854183 3.706557 -7.178906 
-0.514782 0.681218 1.005999 78.442073 -13.760262 69.079082 19.305955 0.200332 -46.332286 -2.429869 14.846856 99.134984 -9.568163 0.043377 5.567324 0.000000 -0.000000 0.000000 -12.485509 -6.038027 13.943360 -0.373515 6.435596 19.773936 -2.257565 2.135751 -19.253806 0.000000 -0.000000 0.000000 -1.263181 12.308707 24.395354 -2.356477 -3.252375 8.919648 -3.470325 2.058382 3.956908 -3.065712 9.254656 27.933215 1.948421 6.555500 20.810923 -20.967908 6.562203 3.005197 -49.483561 6.064350 -2.798181 9.333068 -46.682444 8.386121 -15.599618 -9.926024 -3.366149 18.338603 0.681773 6.724223 49.362974 3.219955 1.672565 -13.818842 50.991606 0.628542 10.054816 3.623118 -5.860122 
-0.513738 0.679842 1.004313 78.548379 -12.517804 70.740428 16.424831 -0.956043 -38.003174 -3.133392 12.873426 88.315774 -9.733974 1.757048 7.556422 0.000000 -0.000000 0.000000 -10.896159 -5.974179 12.725734 -0.144842 5.450223 19.332949 -2.454474 2.137531 -19.036197 0.000000 -0.000000 0.000000 -0.674394 10.969381 22.467443 -2.232037 -2.683216 9.435611 -3.478884 1.889288 3.798484 -2.923210 9.052142 28.209694 1.820652 6.173231 20.224349 -21.057138 7.645831 2.841116 -49.889505 5.401116 -2.361722 9.382809 -47.702211 7.904878 -16.640130 -9.475861 -2.577087 18.734580 -0.577799 6.735739 50.061504 2.278833 1.948472 -12.975719 50.235948 1.056429 10.257452 3.514890 -4.753032 
